<svg width="49" height="49" viewBox="0 0 49 49" fill="none" xmlns="http://www.w3.org/2000/svg">
<path d="M42.3 4.5H6.7C6.11652 4.5 5.55695 4.73179 5.14437 5.14437C4.73179 5.55695 4.5 6.11652 4.5 6.7V42.3C4.5 42.5889 4.5569 42.875 4.66747 43.1419C4.77803 43.4088 4.94008 43.6513 5.14437 43.8556C5.34865 44.0599 5.59118 44.222 5.8581 44.3325C6.12501 44.4431 6.41109 44.5 6.7 44.5H25.86V29H20.66V23H25.86V18.5C25.7523 17.4435 25.877 16.3763 26.2254 15.3731C26.5739 14.3699 27.1375 13.4551 27.8769 12.6928C28.6163 11.9306 29.5135 11.3393 30.5057 10.9605C31.4978 10.5817 32.5607 10.4245 33.62 10.5C35.1767 10.4904 36.7326 10.5706 38.28 10.74V16.14H35.1C32.58 16.14 32.1 17.34 32.1 19.08V22.94H38.1L37.32 28.94H32.1V44.5H42.3C42.5889 44.5 42.875 44.4431 43.1419 44.3325C43.4088 44.222 43.6513 44.0599 43.8556 43.8556C44.0599 43.6513 44.222 43.4088 44.3325 43.1419C44.4431 42.875 44.5 42.5889 44.5 42.3V6.7C44.5 6.41109 44.4431 6.12501 44.3325 5.8581C44.222 5.59118 44.0599 5.34865 43.8556 5.14437C43.6513 4.94008 43.4088 4.77803 43.1419 4.66747C42.875 4.5569 42.5889 4.5 42.3 4.5Z" fill="black"/>
</svg>
