<svg width="49" height="49" viewBox="0 0 49 49" fill="none" xmlns="http://www.w3.org/2000/svg">
<path d="M24.5 4.99341C19.7509 4.99361 15.1569 6.68364 11.5399 9.7611C7.92293 12.8386 5.519 17.1027 4.75826 21.7904C3.99752 26.4781 4.92963 31.2836 7.38779 35.3469C9.84596 39.4103 13.6698 42.4664 18.175 43.9684C19.175 44.1434 19.55 43.5434 19.55 43.0184C19.55 42.5434 19.525 40.9684 19.525 39.2934C14.5 40.2184 13.2 38.0685 12.8 36.9435C12.3561 35.8493 11.6525 34.8797 10.75 34.1184C10.05 33.7434 9.04999 32.8184 10.725 32.7934C11.3645 32.8629 11.978 33.0854 12.5133 33.4422C13.0485 33.7991 13.4899 34.2797 13.8 34.8434C14.0735 35.3348 14.4414 35.7674 14.8824 36.1164C15.3234 36.4654 15.8289 36.7239 16.3701 36.8772C16.9112 37.0305 17.4772 37.0755 18.0358 37.0096C18.5943 36.9438 19.1343 36.7683 19.625 36.4934C19.7115 35.4766 20.1647 34.526 20.9 33.8185C16.45 33.3185 11.8 31.5934 11.8 23.9435C11.7719 21.9558 12.5054 20.0326 13.85 18.5685C13.2386 16.8409 13.3101 14.945 14.05 13.2685C14.05 13.2685 15.7249 12.7434 19.55 15.3185C22.8226 14.4184 26.2774 14.4184 29.55 15.3185C33.375 12.7185 35.05 13.2685 35.05 13.2685C35.79 14.945 35.8615 16.8409 35.25 18.5685C36.5987 20.0301 37.3328 21.9549 37.3 23.9435C37.3 31.6184 32.625 33.3185 28.175 33.8185C28.6523 34.3022 29.0199 34.8831 29.2528 35.5215C29.4858 36.1599 29.5786 36.841 29.525 37.5185C29.525 40.1935 29.5 42.3434 29.5 43.0185C29.5 43.5435 29.875 44.1685 30.875 43.9685C35.3723 42.4542 39.1851 39.3909 41.6328 35.3255C44.0805 31.2601 45.0038 26.4571 44.2378 21.7739C43.4717 17.0907 41.0663 12.8322 37.4509 9.75843C33.8355 6.68471 29.2454 4.99588 24.5 4.99341Z" fill="black"/>
</svg>
