<svg width="49" height="49" viewBox="0 0 49 49" fill="none" xmlns="http://www.w3.org/2000/svg">
<path d="M35.18 11.42C34.7053 11.42 34.2413 11.5608 33.8466 11.8245C33.452 12.0882 33.1443 12.463 32.9627 12.9016C32.781 13.3401 32.7335 13.8227 32.8261 14.2882C32.9187 14.7538 33.1473 15.1814 33.4829 15.5171C33.8186 15.8527 34.2462 16.0813 34.7118 16.1739C35.1773 16.2665 35.6599 16.219 36.0984 16.0373C36.537 15.8557 36.9118 15.548 37.1755 15.1534C37.4392 14.7587 37.58 14.2947 37.58 13.82C37.58 13.1835 37.3271 12.573 36.8771 12.1229C36.427 11.6729 35.8165 11.42 35.18 11.42ZM44.38 16.26C44.3411 14.6006 44.0303 12.9588 43.46 11.4C42.9515 10.0663 42.16 8.85856 41.14 7.86C40.1496 6.83485 38.9391 6.04835 37.6 5.56C36.0453 4.97232 34.4017 4.65442 32.74 4.62C30.62 4.5 29.94 4.5 24.5 4.5C19.06 4.5 18.38 4.5 16.26 4.62C14.5983 4.65442 12.9547 4.97232 11.4 5.56C10.0634 6.0533 8.85387 6.83912 7.86 7.86C6.83485 8.85036 6.04835 10.0609 5.56 11.4C4.97232 12.9547 4.65442 14.5983 4.62 16.26C4.5 18.38 4.5 19.06 4.5 24.5C4.5 29.94 4.5 30.62 4.62 32.74C4.65442 34.4017 4.97232 36.0453 5.56 37.6C6.04835 38.9391 6.83485 40.1496 7.86 41.14C8.85387 42.1609 10.0634 42.9467 11.4 43.44C12.9547 44.0277 14.5983 44.3456 16.26 44.38C18.38 44.5 19.06 44.5 24.5 44.5C29.94 44.5 30.62 44.5 32.74 44.38C34.4017 44.3456 36.0453 44.0277 37.6 43.44C38.9391 42.9516 40.1496 42.1651 41.14 41.14C42.1645 40.1452 42.9567 38.9364 43.46 37.6C44.0303 36.0412 44.3411 34.3994 44.38 32.74C44.38 30.62 44.5 29.94 44.5 24.5C44.5 19.06 44.5 18.38 44.38 16.26ZM40.78 32.5C40.7654 33.7695 40.5355 35.0274 40.1 36.22C39.7807 37.0904 39.2678 37.8768 38.6 38.52C37.9513 39.181 37.1665 39.6929 36.3 40.02C35.1074 40.4555 33.8495 40.6854 32.58 40.7C30.58 40.8 29.84 40.82 24.58 40.82C19.32 40.82 18.58 40.82 16.58 40.7C15.2618 40.7247 13.9492 40.5217 12.7 40.1C11.8716 39.7562 11.1227 39.2456 10.5 38.6C9.83618 37.9575 9.32969 37.1704 9.02 36.3C8.53171 35.0903 8.26089 33.8039 8.22 32.5C8.22 30.5 8.1 29.76 8.1 24.5C8.1 19.24 8.1 18.5 8.22 16.5C8.22896 15.2021 8.4659 13.9159 8.92 12.7C9.27209 11.8558 9.81253 11.1033 10.5 10.5C11.1076 9.81234 11.8586 9.26619 12.7 8.9C13.9191 8.46009 15.204 8.23016 16.5 8.22C18.5 8.22 19.24 8.1 24.5 8.1C29.76 8.1 30.5 8.1 32.5 8.22C33.7695 8.23456 35.0274 8.46449 36.22 8.9C37.1289 9.2373 37.9446 9.78569 38.6 10.5C39.2554 11.1144 39.7675 11.8655 40.1 12.7C40.5445 13.9179 40.7746 15.2036 40.78 16.5C40.88 18.5 40.9 19.24 40.9 24.5C40.9 29.76 40.88 30.5 40.78 32.5ZM24.5 14.24C22.4716 14.244 20.4899 14.8491 18.8053 15.9788C17.1207 17.1086 15.8088 18.7124 15.0353 20.5875C14.2618 22.4626 14.0614 24.5249 14.4596 26.5139C14.8577 28.5028 15.8365 30.3291 17.2722 31.762C18.7078 33.1948 20.536 34.17 22.5257 34.5643C24.5154 34.9586 26.5773 34.7542 28.4509 33.9771C30.3245 33.1999 31.9258 31.8849 33.0523 30.1981C34.1788 28.5113 34.78 26.5284 34.78 24.5C34.7826 23.1502 34.5184 21.8132 34.0025 20.5659C33.4866 19.3186 32.7291 18.1856 31.7737 17.2321C30.8184 16.2786 29.6839 15.5234 28.4356 15.0099C27.1873 14.4964 25.8498 14.2347 24.5 14.24ZM24.5 31.16C23.1828 31.16 21.8951 30.7694 20.7999 30.0376C19.7047 29.3058 18.851 28.2656 18.347 27.0487C17.8429 25.8317 17.711 24.4926 17.968 23.2007C18.2249 21.9088 18.8593 20.7221 19.7907 19.7907C20.7221 18.8593 21.9088 18.2249 23.2007 17.968C24.4926 17.711 25.8317 17.8429 27.0487 18.347C28.2656 18.851 29.3058 19.7047 30.0376 20.7999C30.7694 21.8951 31.16 23.1828 31.16 24.5C31.16 25.3746 30.9877 26.2406 30.653 27.0487C30.3183 27.8567 29.8278 28.5909 29.2093 29.2093C28.5909 29.8278 27.8567 30.3183 27.0487 30.653C26.2406 30.9877 25.3746 31.16 24.5 31.16Z" fill="black"/>
</svg>
