<svg width="45" height="45" viewBox="0 0 45 45" fill="none" xmlns="http://www.w3.org/2000/svg">
<path d="M22.5 41.25C19.9375 41.25 17.5156 40.7578 15.2344 39.7734C12.9531 38.7891 10.9609 37.4453 9.25781 35.7422C7.55469 34.0391 6.21094 32.0469 5.22656 29.7656C4.24219 27.4844 3.75 25.0625 3.75 22.5C3.75 19.9062 4.24219 17.4766 5.22656 15.2109C6.21094 12.9453 7.55469 10.9609 9.25781 9.25781C10.9609 7.55469 12.9531 6.21094 15.2344 5.22656C17.5156 4.24219 19.9375 3.75 22.5 3.75C25.0938 3.75 27.5234 4.24219 29.7891 5.22656C32.0547 6.21094 34.0391 7.55469 35.7422 9.25781C37.4453 10.9609 38.7891 12.9453 39.7734 15.2109C40.7578 17.4766 41.25 19.9062 41.25 22.5C41.25 25.0625 40.7578 27.4844 39.7734 29.7656C38.7891 32.0469 37.4453 34.0391 35.7422 35.7422C34.0391 37.4453 32.0547 38.7891 29.7891 39.7734C27.5234 40.7578 25.0938 41.25 22.5 41.25ZM22.5 37.4062C23.3125 36.2812 24.0156 35.1094 24.6094 33.8906C25.2031 32.6719 25.6875 31.375 26.0625 30H18.9375C19.3125 31.375 19.7969 32.6719 20.3906 33.8906C20.9844 35.1094 21.6875 36.2812 22.5 37.4062ZM17.625 36.6563C17.0625 35.625 16.5703 34.5547 16.1484 33.4453C15.7266 32.3359 15.375 31.1875 15.0938 30H9.5625C10.4688 31.5625 11.6016 32.9219 12.9609 34.0781C14.3203 35.2344 15.875 36.0938 17.625 36.6563ZM27.375 36.6563C29.125 36.0938 30.6797 35.2344 32.0391 34.0781C33.3984 32.9219 34.5312 31.5625 35.4375 30H29.9062C29.625 31.1875 29.2734 32.3359 28.8516 33.4453C28.4297 34.5547 27.9375 35.625 27.375 36.6563ZM7.96875 26.25H14.3438C14.25 25.625 14.1797 25.0078 14.1328 24.3984C14.0859 23.7891 14.0625 23.1562 14.0625 22.5C14.0625 21.8438 14.0859 21.2109 14.1328 20.6016C14.1797 19.9922 14.25 19.375 14.3438 18.75H7.96875C7.8125 19.375 7.69531 19.9922 7.61719 20.6016C7.53906 21.2109 7.5 21.8438 7.5 22.5C7.5 23.1562 7.53906 23.7891 7.61719 24.3984C7.69531 25.0078 7.8125 25.625 7.96875 26.25ZM18.0938 26.25H26.9062C27 25.625 27.0703 25.0078 27.1172 24.3984C27.1641 23.7891 27.1875 23.1562 27.1875 22.5C27.1875 21.8438 27.1641 21.2109 27.1172 20.6016C27.0703 19.9922 27 19.375 26.9062 18.75H18.0938C18 19.375 17.9297 19.9922 17.8828 20.6016C17.8359 21.2109 17.8125 21.8438 17.8125 22.5C17.8125 23.1562 17.8359 23.7891 17.8828 24.3984C17.9297 25.0078 18 25.625 18.0938 26.25ZM30.6562 26.25H37.0312C37.1875 25.625 37.3047 25.0078 37.3828 24.3984C37.4609 23.7891 37.5 23.1562 37.5 22.5C37.5 21.8438 37.4609 21.2109 37.3828 20.6016C37.3047 19.9922 37.1875 19.375 37.0312 18.75H30.6562C30.75 19.375 30.8203 19.9922 30.8672 20.6016C30.9141 21.2109 30.9375 21.8438 30.9375 22.5C30.9375 23.1562 30.9141 23.7891 30.8672 24.3984C30.8203 25.0078 30.75 25.625 30.6562 26.25ZM29.9062 15H35.4375C34.5312 13.4375 33.3984 12.0781 32.0391 10.9219C30.6797 9.76562 29.125 8.90625 27.375 8.34375C27.9375 9.375 28.4297 10.4453 28.8516 11.5547C29.2734 12.6641 29.625 13.8125 29.9062 15ZM18.9375 15H26.0625C25.6875 13.625 25.2031 12.3281 24.6094 11.1094C24.0156 9.89062 23.3125 8.71875 22.5 7.59375C21.6875 8.71875 20.9844 9.89062 20.3906 11.1094C19.7969 12.3281 19.3125 13.625 18.9375 15ZM9.5625 15H15.0938C15.375 13.8125 15.7266 12.6641 16.1484 11.5547C16.5703 10.4453 17.0625 9.375 17.625 8.34375C15.875 8.90625 14.3203 9.76562 12.9609 10.9219C11.6016 12.0781 10.4688 13.4375 9.5625 15Z" fill="black"/>
</svg>
