<svg width="49" height="49" viewBox="0 0 49 49" fill="none" xmlns="http://www.w3.org/2000/svg">
<path d="M41.44 4.50001H7.56C7.17915 4.49472 6.801 4.5645 6.44713 4.70537C6.09326 4.84625 5.7706 5.05545 5.49759 5.32103C5.22458 5.58661 5.00656 5.90337 4.85598 6.25322C4.7054 6.60307 4.62521 6.97916 4.62 7.36001V41.64C4.62521 42.0208 4.7054 42.3969 4.85598 42.7468C5.00656 43.0966 5.22458 43.4134 5.49759 43.679C5.7706 43.9446 6.09326 44.1538 6.44713 44.2946C6.801 44.4355 7.17915 44.5053 7.56 44.5H41.44C41.8208 44.5053 42.199 44.4355 42.5529 44.2946C42.9067 44.1538 43.2294 43.9446 43.5024 43.679C43.7754 43.4134 43.9934 43.0966 44.144 42.7468C44.2946 42.3969 44.3748 42.0208 44.38 41.64V7.36001C44.3748 6.97916 44.2946 6.60307 44.144 6.25322C43.9934 5.90337 43.7754 5.58661 43.5024 5.32103C43.2294 5.05545 42.9067 4.84625 42.5529 4.70537C42.199 4.5645 41.8208 4.49472 41.44 4.50001ZM16.68 37.98H10.68V19.98H16.68V37.98ZM13.68 17.46C12.8525 17.46 12.0589 17.1313 11.4738 16.5462C10.8887 15.9611 10.56 15.1675 10.56 14.34C10.56 13.5125 10.8887 12.7189 11.4738 12.1338C12.0589 11.5487 12.8525 11.22 13.68 11.22C14.1194 11.1702 14.5643 11.2137 14.9857 11.3478C15.4071 11.4818 15.7955 11.7034 16.1253 11.9979C16.4551 12.2925 16.719 12.6534 16.8997 13.057C17.0804 13.4606 17.1738 13.8978 17.1738 14.34C17.1738 14.7822 17.0804 15.2194 16.8997 15.623C16.719 16.0266 16.4551 16.3875 16.1253 16.6821C15.7955 16.9766 15.4071 17.1982 14.9857 17.3322C14.5643 17.4663 14.1194 17.5098 13.68 17.46ZM38.32 37.98H32.32V28.32C32.32 25.9 31.46 24.32 29.28 24.32C28.6053 24.3249 27.9484 24.5366 27.3977 24.9263C26.847 25.3161 26.429 25.8654 26.2 26.5C26.0435 26.9701 25.9757 27.4652 26 27.96V37.96H20C20 37.96 20 21.6 20 19.96H26V22.5C26.5451 21.5542 27.3378 20.775 28.2929 20.2464C29.2479 19.7178 30.3291 19.4597 31.42 19.5C35.42 19.5 38.32 22.08 38.32 27.62V37.98Z" fill="black"/>
</svg>
