<svg width="34" height="34" viewBox="0 0 34 34" fill="none" xmlns="http://www.w3.org/2000/svg">
<path d="M17 2.83333C14.1981 2.83333 11.4591 3.66419 9.12942 5.22084C6.79973 6.7775 4.98395 8.99003 3.91171 11.5786C2.83947 14.1673 2.55892 17.0157 3.10554 19.7638C3.65217 22.5118 5.00141 25.0361 6.98266 27.0173C8.9639 28.9986 11.4882 30.3478 14.2362 30.8945C16.9843 31.4411 19.8327 31.1605 22.4214 30.0883C25.01 29.016 27.2225 27.2003 28.7792 24.8706C30.3358 22.5409 31.1667 19.8019 31.1667 17C31.1667 15.1396 30.8002 13.2974 30.0883 11.5786C29.3764 9.85987 28.3328 8.29815 27.0173 6.98265C25.7019 5.66715 24.1401 4.62364 22.4214 3.9117C20.7026 3.19976 18.8604 2.83333 17 2.83333ZM17 28.3333C14.7585 28.3333 12.5673 27.6686 10.7035 26.4233C8.83978 25.178 7.38716 23.408 6.52937 21.3371C5.67157 19.2662 5.44714 16.9874 5.88444 14.789C6.32173 12.5905 7.40113 10.5711 8.98612 8.98612C10.5711 7.40112 12.5905 6.32173 14.789 5.88443C16.9874 5.44713 19.2662 5.67157 21.3371 6.52936C23.408 7.38715 25.178 8.83978 26.4233 10.7035C27.6686 12.5673 28.3333 14.7585 28.3333 17C28.3333 20.0058 27.1393 22.8885 25.0139 25.0139C22.8885 27.1393 20.0058 28.3333 17 28.3333ZM14.1667 12.75C14.1667 12.4698 14.0836 12.1959 13.9279 11.9629C13.7723 11.73 13.551 11.5484 13.2921 11.4412C13.0333 11.3339 12.7484 11.3059 12.4736 11.3605C12.1988 11.4152 11.9464 11.5501 11.7483 11.7483C11.5501 11.9464 11.4152 12.1988 11.3606 12.4736C11.3059 12.7484 11.3339 13.0333 11.4412 13.2921C11.5484 13.551 11.73 13.7722 11.9629 13.9279C12.1959 14.0836 12.4698 14.1667 12.75 14.1667C13.1257 14.1667 13.4861 14.0174 13.7517 13.7517C14.0174 13.4861 14.1667 13.1257 14.1667 12.75ZM21.25 11.3333C20.9698 11.3333 20.6959 11.4164 20.4629 11.5721C20.23 11.7277 20.0484 11.949 19.9412 12.2079C19.8339 12.4667 19.8059 12.7516 19.8606 13.0264C19.9152 13.3012 20.0501 13.5536 20.2483 13.7517C20.4464 13.9499 20.6988 14.0848 20.9736 14.1394C21.2484 14.1941 21.5333 14.166 21.7921 14.0588C22.051 13.9516 22.2723 13.77 22.4279 13.5371C22.5836 13.3041 22.6667 13.0302 22.6667 12.75C22.6667 12.3743 22.5174 12.0139 22.2517 11.7483C21.9861 11.4826 21.6257 11.3333 21.25 11.3333ZM17 15.5833C15.7336 15.635 14.5389 16.1852 13.6764 17.114C12.814 18.0428 12.3537 19.2749 12.3958 20.5417C12.3537 21.8084 12.814 23.0405 13.6764 23.9693C14.5389 24.8982 15.7336 25.4484 17 25.5C18.2664 25.4484 19.4611 24.8982 20.3236 23.9693C21.186 23.0405 21.6463 21.8084 21.6042 20.5417C21.6463 19.2749 21.186 18.0428 20.3236 17.114C19.4611 16.1852 18.2664 15.635 17 15.5833ZM17 22.6667C16.4848 22.6163 16.0101 22.3651 15.6786 21.9674C15.3472 21.5697 15.1857 21.0575 15.2292 20.5417C15.1857 20.0258 15.3472 19.5136 15.6786 19.1159C16.0101 18.7182 16.4848 18.467 17 18.4167C17.5152 18.467 17.9899 18.7182 18.3214 19.1159C18.6528 19.5136 18.8143 20.0258 18.7708 20.5417C18.8143 21.0575 18.6528 21.5697 18.3214 21.9674C17.9899 22.3651 17.5152 22.6163 17 22.6667Z" fill="black"/>
</svg>
